<svg viewBox="383 174.1167 380 156.0667" width="5000" height="2053.5092105263157" xmlns="http://www.w3.org/2000/svg" xmlns:xlink="http://www.w3.org/1999/xlink" preserveAspectRatio="none"><defs></defs><style>.aD6z1nYkhcolor {fill:#FFFFFF;fill-opacity:1;}.aD6z1nYkhstrokeColor-str {stroke:#D9D9D9;stroke-opacity:1;}</style><g opacity="1" transform="rotate(0 383 174.1167)">
<svg width="380" height="156.0667" x="383" y="174.1167" version="1.1" preserveAspectRatio="none" viewBox="2.4 -30 74.32 30.52">
  <g transform="matrix(1 0 0 1 0 0)" class="aD6z1nYkhcolor"><path id="id-D6z1nYkh5" d="M9.24-0.76L9.24-0.76L9.24 0.36Q6.40 0.36 4.40-1.54Q2.40-3.44 2.40-6.40L2.40-6.40L2.40-30L3.68-30L3.68-6.40Q3.68-3.96 5.30-2.36Q6.92-0.76 9.24-0.76Z M26.92-7.52L26.92-18L28.20-18L28.20 0L26.92 0L26.92-3.64Q24.88 0.44 19.96 0.44L19.96 0.44Q16.60 0.44 14.32-1.88Q12.04-4.20 12.04-7.52L12.04-7.52L12.04-18L13.32-18L13.32-7.52Q13.32-4.76 15.26-2.72Q17.20-0.68 19.96-0.68Q22.72-0.68 24.82-2.72Q26.92-4.76 26.92-7.52L26.92-7.52Z M41.32 0.52L41.32 0.52L40.96 0.52Q37.12 0.52 34.36-2.32Q31.60-5.16 31.60-8.98Q31.60-12.80 34.40-15.58Q37.20-18.36 41.28-18.36Q45.36-18.36 48.24-15.28L48.24-15.28L48.24-13.24Q47-15.08 45.10-16.16Q43.20-17.24 41.12-17.24L41.12-17.24Q37.80-17.24 35.34-14.78Q32.88-12.32 32.88-8.92Q32.88-5.52 35.34-3.06Q37.80-0.60 41.12-0.60L41.12-0.60Q43.20-0.60 45.10-1.68Q47-2.76 48.24-4.64L48.24-4.64L48.24-2.56Q45.44 0.52 41.32 0.52Z M52.16-17.96L53.44-17.96L53.44 0L52.16 0L52.16-17.96ZM52.80-22.36Q51.64-22.36 51.64-23.44Q51.64-24.52 52.80-24.52Q53.96-24.52 53.96-23.44Q53.96-22.36 52.80-22.36Z M75.44-30L76.72-30L76.72 0L75.44 0L75.44-4.36Q74.24-2.16 71.96-0.86Q69.68 0.44 67.28 0.44L67.28 0.44Q63.32 0.44 60.54-2.34Q57.76-5.12 57.76-9Q57.76-12.88 60.54-15.66Q63.32-18.44 67.28-18.44L67.28-18.44Q69.76-18.44 72.06-17.12Q74.36-15.80 75.44-13.60L75.44-13.60L75.44-30ZM59.04-8.98Q59.04-5.60 61.44-3.14Q63.84-0.68 67.22-0.68Q70.60-0.68 73.06-3.14Q75.52-5.60 75.52-8.96Q75.52-12.32 73.06-14.82Q70.60-17.32 67.24-17.32Q63.88-17.32 61.46-14.84Q59.04-12.36 59.04-8.98Z"/></g>
</svg>
</g></svg>